# xmcd
# Track frame offsets:
# 150
# 20160
# 37230
# 56472
# 73377
# 88987
# 105340
# 123600
# 138997
# 163360
# 185985
# 206725
# 223242
# 243912
#
# Disc length: 3487 seconds
# Revision: 0
# Processed by: cddbd v1.5PL3 Copyright (c) Steve Scherf et al.
# Submitted via: VisiTrax 2.9.9.209 - For more info visit www.synapsa.com
#
DISCID=e80d9d0e
DTITLE=The Gaelforce Orchestra - Scotland Again
DYEAR=1996
DGENRE=Bagpipe
TTITLE0=Mull of Kintyre
TTITLE1=The Bonnie Lass of Ballochmyle
TTITLE2=Scotland Again
TTITLE3=The Star of Rabbie Burns
TTITLE4=The Flowers of the Forest
TTITLE5=A Man's a Man
TTITLE6=My Love is Like a Red Rose
TTITLE7=The Skye Boat Song
TTITLE8=Loch Lomond
TTITLE9=Westering Home
TTITLE10=Annie Laurie
TTITLE11=Glencoe
TTITLE12=Auld Lang Syne
TTITLE13=Bonus
EXTD=
EXTT0=
EXTT1=
EXTT2=
EXTT3=
EXTT4=
EXTT5=
EXTT6=
EXTT7=
EXTT8=
EXTT9=
EXTT10=
EXTT11=
EXTT12=
EXTT13=
PLAYORDER=
